<?xml version="1.0" encoding="UTF-8"?>
<svg width="700pt" height="700pt" version="1.1" viewBox="0 0 700 700" xmlns="http://www.w3.org/2000/svg">
<path d="m650.2 272.33c-0.15068-37.983-13.83-74.771-38.767-104.3 8.4695-33.747 5.8223-69.183-7.5557-101.44-2.638-6.2099-8.0454-10.958-14.725-12.943-9.4588-3.105-45.251-8.9267-118.18 36.355v0.0095c-31.372-7.9339-63.725-11.68-96.16-11.129-32.484-0.5596-64.892 3.1862-96.302 11.129-74.821-46.322-113.72-38.822-121.55-36.62-6.7173 2.067-12.115 6.9139-14.725 13.196-13.416 32.151-16.157 67.487-7.8289 101.19-25.758 29.37-39.483 66.71-38.627 105.06 0 143.12 85.486 186.33 163.83 201.6-4.0229 9.4231-6.7926 19.288-8.2341 29.37-0.14131 1.0741-0.14131 2.1663 0 3.2402v39.588c-71.307 5.6954-86.571-34.291-88.06-38.822v9e-3c-0.34856-1.056-0.75368-2.094-1.2247-3.1141-13.773-26.914-38.015-47.595-67.531-57.577-12.379-3.9624-25.777 2.437-29.911 14.297-4.1357 11.86 2.5437 24.696 14.923 28.667 16.354 5.6593 29.998 16.834 38.362 31.436 9.4588 29.37 48.086 75.826 133.17 70.646v37.268c0 12.51 10.58 22.646 23.637 22.646 13.048 0 23.637-10.136 23.637-22.646v-120.72c1.79-13.187 7.7819-25.517 17.147-35.327 6.7078-6.0114 9.1385-15.209 6.2366-23.557-2.9017-8.3401-10.617-14.306-19.737-15.263-82.386-9.1885-158.56-35.191-158.56-162.65h-9e-3c-1.1023-31.104 11.437-61.232 34.575-83.076 6.2745-6.4627 8.347-15.696 5.4078-24.063-7.9609-22.15-8.4789-46.132-1.4885-68.58 28.997 6.2729 56.233 18.504 79.817 35.843 6.1426 3.8902 13.802 4.8921 20.801 2.7169 30.014-8.7552 61.293-12.817 92.656-12.032 31.305-0.78525 62.548 3.2765 92.513 12.032 6.9997 2.1933 14.668 1.1914 20.801-2.7169 22.715-16.68 48.716-28.784 76.442-35.588 6.8869 22.7 6.2745 46.881-1.7618 69.23-2.685 7.5909-0.93267 15.986 4.5973 21.996 22.357 22.872 35.019 52.91 35.519 84.24 0 127.19-80.089 153.6-158.56 162.65-9.619 1.029-17.599 7.5909-20.104 16.545-2.5061 8.9537 0.97036 18.458 8.7616 23.963 8.3754 6.0835 18.097 23.16 18.097 51.753v102.48c0 12.51 10.58 22.646 23.627 22.646 13.058 0 23.637-10.136 23.637-22.646v-102.48c0.24495-18.025-3.1937-35.915-10.128-52.666 63.477-12.934 161.53-52.919 161.53-201.85z" stroke-width="1.5103"/>
</svg>
