<?xml version="1.0" standalone="no"?>
<!DOCTYPE svg PUBLIC "-//W3C//DTD SVG 20010904//EN"
 "http://www.w3.org/TR/2001/REC-SVG-20010904/DTD/svg10.dtd">
<svg version="1.0" xmlns="http://www.w3.org/2000/svg"
 width="1280.000000pt" height="1280.000000pt" viewBox="0 0 1280.000000 1280.000000"
 preserveAspectRatio="xMidYMid meet">
<g transform="translate(0.000000,1280.000000) scale(0.100000,-0.100000)"
fill="#000000" stroke="none">
<path d="M6209 12795 c-3 -2 -81 -9 -174 -15 -919 -58 -1720 -274 -2525 -681
-596 -301 -1098 -662 -1584 -1139 -403 -396 -726 -805 -1022 -1295 -105 -175
-325 -613 -406 -810 -256 -623 -409 -1248 -463 -1895 -8 -102 -20 -239 -25
-305 -13 -150 -13 -378 -1 -498 6 -51 15 -164 21 -252 96 -1348 649 -2669
1554 -3705 1101 -1261 2660 -2045 4316 -2170 80 -6 198 -15 262 -20 149 -13
364 -13 481 -1 51 6 164 15 252 21 142 10 323 30 425 45 256 40 454 81 688
140 1401 360 2656 1208 3529 2385 628 848 1038 1842 1188 2882 13 95 31 259
40 363 8 105 20 240 25 301 13 140 13 375 0 501 -5 54 -14 166 -20 248 -65
904 -349 1843 -798 2635 -308 544 -656 997 -1103 1435 -489 479 -1003 847
-1612 1151 -743 373 -1547 596 -2357 654 -85 6 -199 15 -253 20 -98 10 -430
14 -438 5z m717 -812 c625 -662 1110 -1320 1490 -2020 141 -260 344 -689 344
-726 0 -11 -24 -23 -82 -41 -606 -182 -1189 -286 -1818 -325 -87 -5 -139 -5
-147 2 -10 7 -13 349 -13 1647 0 900 3 1640 7 1643 20 21 57 -9 219 -180z
m-832 141 c3 -9 6 -741 6 -1629 0 -1278 -3 -1615 -12 -1622 -31 -24 -612 31
-979 92 -363 61 -984 212 -1004 245 -3 5 29 87 71 182 353 797 834 1546 1456
2268 149 172 435 480 447 480 5 0 12 -7 15 -16z m-954 -95 c0 -6 -33 -50 -73
-97 -623 -737 -1165 -1613 -1507 -2434 -17 -43 -36 -80 -41 -83 -26 -17 -690
297 -980 463 -186 107 -428 257 -471 293 l-31 25 60 70 c33 38 125 134 204
214 728 733 1648 1262 2644 1520 158 41 195 47 195 29z m2756 -40 c868 -237
1637 -647 2309 -1233 151 -131 377 -353 484 -475 l74 -85 -31 -25 c-43 -36
-284 -186 -471 -293 -270 -155 -880 -447 -912 -436 -6 2 -48 87 -93 188 -350
785 -873 1608 -1443 2272 -75 87 -99 128 -75 128 5 0 76 -18 158 -41z m-6037
-2408 c427 -272 867 -502 1306 -683 66 -28 126 -55 132 -62 10 -9 3 -44 -33
-161 -179 -596 -286 -1192 -324 -1804 -6 -107 -13 -157 -22 -162 -7 -5 -522
-9 -1145 -9 -989 0 -1133 2 -1140 15 -17 30 19 384 67 670 92 538 263 1067
505 1560 154 312 421 755 457 755 6 0 94 -53 197 -119z m9368 6 c442 -665 745
-1435 877 -2227 45 -268 79 -617 63 -645 -7 -13 -146 -15 -1101 -15 -863 0
-1096 3 -1103 13 -6 6 -15 94 -22 194 -38 597 -152 1203 -337 1802 -37 117
-43 146 -32 156 7 6 85 42 173 80 417 178 855 414 1257 675 68 44 130 79 138
78 8 -2 47 -52 87 -111z m-2238 -955 c37 -68 169 -567 226 -847 76 -383 149
-1028 121 -1074 -11 -16 -2607 -16 -2624 1 -18 18 -17 1521 1 1535 6 6 73 13
147 17 620 30 1343 156 1950 340 170 52 167 51 179 28z m-4937 -46 c609 -178
1285 -293 1888 -322 74 -4 141 -11 148 -17 17 -14 18 -1517 0 -1535 -15 -15
-2514 -17 -2537 -3 -13 8 -13 33 -2 178 37 517 123 1006 262 1496 57 198 73
247 84 247 2 0 73 -20 157 -44z m-1133 -2495 c10 -6 16 -48 22 -147 42 -689
181 -1398 399 -2039 24 -71 28 -92 18 -101 -7 -7 -69 -35 -138 -62 -415 -166
-869 -399 -1304 -670 l-169 -106 -24 30 c-13 16 -75 106 -137 199 -526 788
-843 1670 -940 2615 -18 172 -22 263 -12 278 9 15 2263 17 2285 3z m3169 -3
c9 -9 12 -213 12 -858 0 -465 -4 -850 -8 -856 -4 -8 -74 -16 -187 -23 -630
-40 -1172 -131 -1778 -298 -114 -32 -171 -43 -178 -36 -13 13 -77 205 -129
383 -144 498 -233 1001 -271 1519 -10 137 -9 165 2 172 23 14 2523 11 2537 -3z
m3249 1 c11 -11 11 -20 -8 -264 -41 -544 -156 -1115 -335 -1667 -30 -92 -59
-170 -64 -173 -5 -3 -62 11 -126 30 -589 179 -1244 294 -1909 336 -113 7 -183
15 -187 23 -4 6 -8 391 -8 857 0 644 3 848 12 857 17 17 2608 18 2625 1z
m2826 -111 c-1 -65 -9 -180 -18 -255 -108 -901 -418 -1753 -910 -2498 -136
-206 -175 -257 -192 -251 -9 4 -75 44 -147 90 -386 246 -861 491 -1318 680
-38 16 -68 31 -68 35 0 4 16 54 35 112 220 652 368 1408 401 2049 3 74 11 141
17 148 7 9 236 12 1106 10 l1096 -3 -2 -117z m-6069 -2244 c12 -30 7 -3042 -5
-3050 -14 -8 -83 59 -275 268 -650 711 -1186 1500 -1554 2288 -56 120 -79 179
-73 189 10 16 41 26 253 80 220 57 447 105 655 140 267 45 447 66 800 94 122
10 193 7 199 -9z m1039 -9 c393 -38 764 -101 1148 -195 234 -58 410 -111 416
-126 5 -15 -172 -383 -284 -589 -275 -505 -642 -1040 -1031 -1505 -170 -202
-396 -451 -525 -578 -104 -102 -118 -112 -136 -102 l-21 11 0 1539 c0 846 3
1546 7 1556 6 15 19 16 142 10 75 -4 203 -14 284 -21z m-3483 -612 c29 -65
104 -219 166 -343 339 -676 741 -1277 1307 -1953 21 -26 36 -50 33 -56 -7 -11
-83 5 -303 65 -887 242 -1734 719 -2414 1360 -152 144 -289 287 -289 302 0 42
680 422 1045 585 166 74 370 156 386 157 11 0 33 -38 69 -117z m5827 15 c310
-133 675 -321 968 -498 154 -93 205 -128 205 -142 0 -27 -335 -353 -535 -521
-469 -393 -984 -702 -1555 -934 -276 -112 -789 -268 -810 -247 -6 6 13 35 46
74 580 677 1076 1453 1447 2263 21 46 42 77 51 77 8 0 90 -32 183 -72z"/>
</g>
</svg>
